<svg width="50" height="100" viewBox="0 0 50 100" fill="none" xmlns="http://www.w3.org/2000/svg">
<mask id="mask0_47_99" style="mask-type:luminance" maskUnits="userSpaceOnUse" x="0" y="0" width="50" height="100">
<path d="M50 100L50 0L0 -2.18557e-06L-4.37114e-06 100L50 100Z" fill="white"/>
</mask>
<g mask="url(#mask0_47_99)">
<path d="M46.0106 40.4928C47.2014 40.4928 48.2859 40.5082 49.3704 40.4928C49.7892 40.4928 49.9986 40.5476 49.9953 41.082C49.9724 44.6423 49.9642 48.2044 49.9953 51.7647C49.9953 52.4943 49.6011 52.3539 49.2134 52.3539C40.2713 52.3539 31.3291 52.3539 22.3871 52.3539C15.2126 52.3539 8.03663 52.3419 0.86228 52.371C0.183355 52.371 0.0116249 52.1996 0.0197922 51.4907C0.0590075 48.0657 0.052473 44.6543 0.0197927 41.2361C0.0197927 40.6383 0.162115 40.4568 0.734663 40.4842C1.78973 40.5322 2.84806 40.4979 4.03074 40.4979C-0.196058 33.1923 -1.17923 25.5493 1.41342 17.5294C3.24708 11.8696 6.66914 7.44438 11.4307 4.17172C20.5796 -2.13211 33.0636 -1.15427 41.3389 6.3141C49.8203 13.9383 53.3355 28.2945 46.0106 40.4928ZM24.9405 40.5082C32.0789 40.6589 38.4551 34.2404 38.6644 26.808C38.8918 18.7077 32.9933 12.2891 25.742 11.8764C18.2453 11.4483 11.4456 17.4815 11.3311 26.0116C11.2231 33.9904 17.2721 40.3901 24.9405 40.5082Z" fill="#010101"/>
<path d="M47.0066 64.4835C47.8097 66.1224 48.5213 67.7031 49.0038 69.3883C49.9406 72.6003 50.2139 75.9844 49.8055 79.3156C49.3971 82.6467 48.3164 85.8488 46.6352 88.7092C44.9539 91.5695 42.7106 94.0226 40.0542 95.9055C37.3978 97.7883 34.3892 99.0579 31.2281 99.63C29.9438 99.8663 28.6423 99.9844 27.3382 99.9827C18.5052 99.993 9.67223 99.9827 0.839224 100.003C0.212587 100.003 0.0212534 99.8577 0.0326899 99.1726C0.0686398 95.7476 0.0735418 92.3346 0.0326904 88.9162C0.0228866 88.1611 0.261774 88.0601 0.899683 88.0601C9.7621 88.0829 18.6242 88.0875 27.4855 88.0738C33.865 88.0738 39.0601 82.2837 38.6806 75.6356C38.3191 69.4329 33.3186 64.4835 27.3662 64.4835C18.533 64.4755 9.70001 64.4808 0.867004 64.4989C0.184814 64.4989 0.0245204 64.3277 0.0326915 63.6222C0.0719067 60.1971 0.0653723 56.7841 0.0326919 53.364C0.0326919 52.7784 0.152134 52.6123 0.736122 52.6123C16.9082 52.6306 33.082 52.6306 49.2574 52.6123C49.8871 52.6123 50.0065 52.7955 50 53.4137C49.9706 56.8616 49.9706 60.3091 50 63.7558C50 64.3654 49.8479 64.5383 49.2803 64.4955C48.5589 64.4424 47.831 64.4835 47.0066 64.4835Z" fill="#010101"/>
</g>
</svg>
