<svg width="1009" height="971" viewBox="0 0 1009 971" fill="none" xmlns="http://www.w3.org/2000/svg">
<path d="M473.288 0.0664062L440.738 71.3311C423.888 72.317 407.124 74.3516 390.549 77.4219L340.757 15.7672L287.089 33.2645L286.822 111.707C264.088 122.912 242.301 136.46 221.72 152.271L145.873 119.524L107.041 159.131L145.87 229.754C133.482 246.689 122.595 264.589 113.324 283.267L30.0485 285.445L13.1401 337.289L80.3757 384.781C77.157 404.017 75.5851 423.454 75.4952 442.908L0.842773 479.18L8.66176 533.013L90.6007 548.394C95.499 564.84 101.573 580.942 108.779 596.587L54.7801 660.869L84.9204 706.88L168.863 688.04C174.175 694.034 179.68 699.867 185.369 705.533C197.253 717.32 209.912 728.365 223.267 738.602L206.959 819.224L256.016 846.397L320.108 792.884C338.447 799.953 357.329 805.652 376.584 809.93L397.504 888.692L453.976 893.116L487.927 818.837C511.389 817.483 534.773 814.12 557.768 808.71L611.705 868.634L664.302 848.446L662.762 818.068L539.989 728.797C504.248 737.462 467.184 739.781 430.782 735.844C362.871 728.502 297.607 699.094 246.39 648.304C129.323 532.201 132.671 347.516 253.743 235.264C312.385 180.892 387.816 153.309 463.333 152.528C543.725 151.695 624.191 181.23 684.553 241.095C782.792 338.531 796.183 485.107 726.389 596.075L794.763 645.806C803.263 633.023 810.941 619.754 817.753 606.072L900.424 603.892L917.332 552.049L850.569 504.881C853.789 485.486 855.42 465.879 855.445 446.241L929.631 410.096L921.815 356.263L839.946 340.882C833.058 318.141 823.927 296.081 812.678 275L861.461 210.208L828.847 165.794L748.518 188.16C747.509 187.135 746.529 186.095 745.507 185.084C732.863 172.539 719.331 160.846 705.007 150.089L720.38 73.954L671.316 46.7832L610.364 97.6713C590.633 90.0567 570.367 84.13 549.812 79.727L529.83 4.48789L473.288 0.0664062ZM348.912 314.861C326.789 315.103 304.861 320.312 284.751 329.791L381.462 400.161C410.711 421.44 419.007 461.88 396.561 490.267C374.109 518.67 330.998 522.94 301.326 501.357L204.684 431.052C194.788 481.897 213.527 535.771 259.421 569.16C300.58 599.096 353.403 604.7 398.905 589.028L409.128 585.501L417.747 591.782L706.874 802.119L715.493 808.398L714.757 818.781C711.256 865.026 730.99 912.317 772.168 942.273C818.063 975.66 877.273 978.428 925.681 955.603L829.043 885.302C799.371 863.716 792.083 822.741 814.543 794.363C836.999 765.98 879.852 762.77 909.109 784.043L1005.75 854.35C1015.62 803.524 996.961 749.623 951.08 716.242C909.776 686.182 857.37 680.226 812.135 695.667L801.976 699.129L793.357 692.847L504.23 482.515L495.612 476.233L496.347 465.918C499.662 420.007 479.559 373.235 438.267 343.189C411.44 323.674 380.046 314.521 348.912 314.861ZM442.079 499.944L792.553 754.947L768.425 785.516L417.884 530.45L442.079 499.944Z" fill="#EDAA46"/>
</svg>
